# xmcd
#
# Track frame offsets:
#	183
#	17023
#	53743
#	70733
#	93290
#	115718
#	136653
#	155018
#	178720
#	201080
#	229548
#	254098
#	278103
#	328638
#
# Disc length: 4726 seconds
#
# Revision: 1
# Processed by: cddbd v1.5.2PL0 Copyright (c) Steve Scherf et al.
# Submitted via: EZCDAudioConverter 4.0.2.1
#
DISCID=bb12740e
DTITLE=The Jeff Healey Band - Sound Barrier
DYEAR=1990
DGENRE=Blues
TTITLE0=My Little Girl
TTITLE1=Blue Jeans Blues
TTITLE2=Confidence Man
TTITLE3=I Think I Love You Too Much
TTITLE4=How Long Can a Man Be Strong
TTITLE5=Can't Get My Hands On You
TTITLE6=Highway of Dreams
TTITLE7=That's What They Say
TTITLE8=Full Circle
TTITLE9=Angle Eyes
TTITLE10=Life Beyond the Sky
TTITLE11=While My Guitar Gently Weeps
TTITLE12=All Along the Watchtower
TTITLE13=Roadhouse Blues
EXTD=
EXTT0=
EXTT1=
EXTT2=
EXTT3=
EXTT4=
EXTT5=
EXTT6=
EXTT7=
EXTT8=
EXTT9=
EXTT10=
EXTT11=
EXTT12=
EXTT13=
PLAYORDER=
